<svg xmlns="http://www.w3.org/2000/svg" width="48" height="48" viewBox="0 0 48 48" fill="none"><path d="M44.0518 22.9523C44.0518 22.4138 43.6152 21.9773 43.0768 21.9773H33.0267C32.4883 21.9773 32.0518 22.4138 32.0518 22.9523V45.0023C32.0518 45.5408 32.4883 45.9773 33.0267 45.9773H43.0768C43.6152 45.9773 44.0518 45.5408 44.0518 45.0023V22.9523Z" fill="#9EB3EE"></path><path d="M16.126 34.9773C16.126 34.425 15.6783 33.9773 15.126 33.9773H5.12598C4.57369 33.9773 4.12598 34.425 4.12598 34.9773V44.9773C4.12598 45.5296 4.57369 45.9773 5.12598 45.9773H15.126C15.6783 45.9773 16.126 45.5296 16.126 44.9773V34.9773Z" fill="#9EB3EE"></path><path d="M30.0889 28.9523C30.0889 28.4138 29.6524 27.9773 29.1139 27.9773H19.0639C18.5254 27.9773 18.0889 28.4138 18.0889 28.9523V45.0023C18.0889 45.5408 18.5254 45.9773 19.0639 45.9773H29.1139C29.6524 45.9773 30.0889 45.5408 30.0889 45.0023V28.9523Z" fill="#9EB3EE"></path><path fill-rule="evenodd" clip-rule="evenodd" d="M4.69912 28.38C3.9245 27.5926 3.93488 26.3263 4.72231 25.5517L18.3135 12.1815C19.0913 11.4164 20.3388 11.4158 21.1173 12.1802L26.1943 17.1651L40.6318 2.61555C41.4099 1.83149 42.6762 1.8266 43.4603 2.60462C44.2443 3.38264 44.2492 4.64897 43.4712 5.43303L27.6323 21.3948C26.8572 22.1759 25.5967 22.1841 24.8115 21.4131L19.7174 16.4115L7.52745 28.4032C6.74002 29.1778 5.47373 29.1674 4.69912 28.38Z" fill="#1E4DD8"></path><path fill-rule="evenodd" clip-rule="evenodd" d="M33.1492 4.02429C33.1492 2.91972 34.0446 2.02429 35.1492 2.02429L42.0517 2.02429C43.1562 2.02429 44.0517 2.91972 44.0517 4.02429L44.0517 10.9031C44.0517 12.0077 43.1562 12.9031 42.0517 12.9031C40.9471 12.9031 40.0517 12.0077 40.0517 10.9031L40.0517 6.02429L35.1492 6.02429C34.0446 6.02429 33.1492 5.12886 33.1492 4.02429Z" fill="#1E4DD8"></path></svg>